<svg width="1000" height="1000" viewBox="0 0 1000 1000" fill="none" xmlns="http://www.w3.org/2000/svg">
<g filter="url(#filter0_d_2_3)">
<path d="M86 786.373C117.6 366.773 479.5 231.207 656.5 215.873C632.5 289.373 509.5 499.873 345.5 549.873C214.3 589.873 117.833 724.207 86 786.373Z" fill="url(#paint0_linear_2_3)"/>
<path d="M86 786.373C101.925 574.91 201.74 435.586 319.5 347.434C314.5 388.747 319.5 425.873 224 549.873C140.052 658.873 105.167 733.707 86 786.373Z" fill="#280000"/>
<path d="M86 786.373C101.925 574.91 201.74 435.586 319.5 347.434C310 382.747 297.5 442.873 199.5 543.873C120.244 625.555 115.333 706.373 86 786.373Z" fill="url(#paint1_linear_2_3)"/>
<path d="M86 786.373C97.0941 639.06 148.9 526.757 219.123 442.373C224.165 457.04 215.582 513.788 167.5 583.373C102.893 676.873 95.2501 736.707 86 786.373Z" fill="url(#paint2_linear_2_3)"/>
<path d="M345.5 549.873C214.3 589.873 117.833 724.207 86 786.373C171.6 489.973 462.718 358.873 597.577 330.373C541.562 416.855 452.21 517.34 345.5 549.873Z" fill="url(#paint3_linear_2_3)"/>
<path d="M678.5 214.373C806.9 210.773 889.656 234.009 913.323 249.176C880.823 291.176 753.023 389.876 501.823 448.676C187.823 522.176 85.8229 789.176 86.3229 785.676C86.3231 747.873 185.823 493.176 428.323 375.176C622.323 280.776 669.177 228.571 678.5 214.373Z" fill="#C90101"/>
</g>
<path d="M210.877 705.087V736.021C210.877 738.176 211.377 739.753 212.376 740.753C213.453 741.677 215.222 742.139 217.682 742.139H225.18V755.759H215.029C201.418 755.759 194.613 749.141 194.613 735.906V705.087H187V691.813H194.613V676H210.877V691.813H225.18V705.087H210.877Z" fill="black"/>
<path d="M293.892 722.401C293.892 724.709 293.738 726.787 293.43 728.634H246.715C247.099 733.251 248.714 736.867 251.559 739.484C254.405 742.1 257.903 743.408 262.056 743.408C268.054 743.408 272.322 740.83 274.859 735.675H292.277C290.431 741.831 286.894 746.909 281.665 750.911C276.436 754.835 270.015 756.797 262.402 756.797C256.25 756.797 250.713 755.451 245.792 752.758C240.947 749.987 237.141 746.101 234.373 741.1C231.681 736.098 230.335 730.327 230.335 723.786C230.335 717.168 231.681 711.359 234.373 706.357C237.064 701.355 240.832 697.508 245.677 694.814C250.521 692.121 256.096 690.774 262.402 690.774C268.477 690.774 273.898 692.083 278.666 694.699C283.51 697.315 287.24 701.047 289.855 705.895C292.546 710.666 293.892 716.168 293.892 722.401ZM277.166 717.784C277.09 713.629 275.59 710.32 272.668 707.857C269.746 705.318 266.17 704.048 261.941 704.048C257.942 704.048 254.558 705.279 251.79 707.742C249.099 710.127 247.445 713.475 246.83 717.784H277.166Z" fill="black"/>
<path d="M338.783 690.89C346.396 690.89 352.548 693.314 357.239 698.162C361.93 702.932 364.275 709.627 364.275 718.246V755.759H348.127V720.439C348.127 715.36 346.858 711.474 344.32 708.781C341.782 706.01 338.322 704.625 333.939 704.625C329.479 704.625 325.941 706.01 323.327 708.781C320.789 711.474 319.52 715.36 319.52 720.439V755.759H303.372V691.813H319.52V699.778C321.674 697.007 324.403 694.853 327.71 693.314C331.094 691.698 334.785 690.89 338.783 690.89Z" fill="black"/>
<path d="M396.126 705.087V736.021C396.126 738.176 396.626 739.753 397.626 740.753C398.702 741.677 400.471 742.139 402.932 742.139H410.429V755.759H400.279C386.668 755.759 379.862 749.141 379.862 735.906V705.087H372.249V691.813H379.862V676H396.126V691.813H410.429V705.087H396.126Z" fill="black"/>
<path d="M469.369 756.797C464.14 756.797 459.449 755.874 455.297 754.027C451.144 752.104 447.838 749.526 445.377 746.294C442.993 743.062 441.686 739.484 441.455 735.559H457.719C458.027 738.022 459.219 740.061 461.295 741.677C463.448 743.293 466.101 744.101 469.254 744.101C472.33 744.101 474.714 743.485 476.405 742.254C478.174 741.023 479.058 739.445 479.058 737.522C479.058 735.444 477.982 733.905 475.829 732.905C473.752 731.827 470.407 730.673 465.793 729.442C461.026 728.288 457.104 727.095 454.028 725.864C451.029 724.632 448.414 722.747 446.184 720.208C444.031 717.668 442.955 714.244 442.955 709.935C442.955 706.395 443.954 703.163 445.954 700.239C448.03 697.315 450.952 695.007 454.72 693.314C458.565 691.621 463.063 690.774 468.216 690.774C475.829 690.774 481.904 692.698 486.441 696.546C490.978 700.316 493.477 705.433 493.938 711.897H478.482C478.251 709.358 477.174 707.357 475.252 705.895C473.406 704.356 470.907 703.587 467.754 703.587C464.832 703.587 462.564 704.125 460.949 705.203C459.411 706.28 458.642 707.78 458.642 709.704C458.642 711.859 459.718 713.513 461.872 714.667C464.025 715.745 467.37 716.86 471.907 718.015C476.521 719.169 480.327 720.362 483.326 721.593C486.325 722.824 488.901 724.748 491.054 727.364C493.284 729.903 494.438 733.289 494.515 737.522C494.515 741.215 493.477 744.524 491.4 747.448C489.401 750.372 486.479 752.681 482.634 754.374C478.866 755.99 474.444 756.797 469.369 756.797Z" fill="black"/>
<path d="M566.598 691.813L527.034 786H509.847L523.689 754.143L498.082 691.813H516.191L532.686 736.483L549.411 691.813H566.598Z" fill="black"/>
<path d="M597.45 756.797C592.221 756.797 587.53 755.874 583.377 754.027C579.225 752.104 575.918 749.526 573.457 746.294C571.074 743.062 569.766 739.484 569.536 735.559H585.8C586.107 738.022 587.299 740.061 589.375 741.677C591.528 743.293 594.181 744.101 597.334 744.101C600.41 744.101 602.794 743.485 604.486 742.254C606.254 741.023 607.139 739.445 607.139 737.522C607.139 735.444 606.062 733.905 603.909 732.905C601.833 731.827 598.488 730.673 593.874 729.442C589.106 728.288 585.184 727.095 582.108 725.864C579.109 724.632 576.495 722.747 574.265 720.208C572.112 717.668 571.035 714.244 571.035 709.935C571.035 706.395 572.035 703.163 574.034 700.239C576.11 697.315 579.033 695.007 582.801 693.314C586.645 691.621 591.144 690.774 596.296 690.774C603.909 690.774 609.984 692.698 614.521 696.546C619.058 700.316 621.557 705.433 622.019 711.897H606.562C606.331 709.358 605.255 707.357 603.332 705.895C601.487 704.356 598.988 703.587 595.835 703.587C592.913 703.587 590.644 704.125 589.029 705.203C587.491 706.28 586.722 707.78 586.722 709.704C586.722 711.859 587.799 713.513 589.952 714.667C592.105 715.745 595.45 716.86 599.987 718.015C604.601 719.169 608.408 720.362 611.407 721.593C614.406 722.824 616.982 724.748 619.135 727.364C621.365 729.903 622.518 733.289 622.595 737.522C622.595 741.215 621.557 744.524 619.481 747.448C617.482 750.372 614.559 752.681 610.715 754.374C606.947 755.99 602.525 756.797 597.45 756.797Z" fill="black"/>
<path d="M652.346 705.087V736.021C652.346 738.176 652.846 739.753 653.845 740.753C654.922 741.677 656.691 742.139 659.151 742.139H666.649V755.759H656.498C642.887 755.759 636.082 749.141 636.082 735.906V705.087H628.469V691.813H636.082V676H652.346V691.813H666.649V705.087H652.346Z" fill="black"/>
<path d="M735.361 722.401C735.361 724.709 735.207 726.787 734.899 728.634H688.184C688.568 733.251 690.183 736.867 693.028 739.484C695.874 742.1 699.372 743.408 703.525 743.408C709.523 743.408 713.791 740.83 716.328 735.675H733.746C731.9 741.831 728.363 746.909 723.134 750.911C717.905 754.835 711.484 756.797 703.871 756.797C697.719 756.797 692.182 755.451 687.261 752.758C682.416 749.987 678.61 746.101 675.842 741.1C673.15 736.098 671.804 730.327 671.804 723.786C671.804 717.168 673.15 711.359 675.842 706.357C678.533 701.355 682.301 697.508 687.146 694.814C691.99 692.121 697.565 690.774 703.871 690.774C709.946 690.774 715.367 692.083 720.135 694.699C724.979 697.315 728.709 701.047 731.324 705.895C734.015 710.666 735.361 716.168 735.361 722.401ZM718.635 717.784C718.558 713.629 717.059 710.32 714.137 707.857C711.215 705.318 707.639 704.048 703.41 704.048C699.411 704.048 696.027 705.279 693.259 707.742C690.568 710.127 688.914 713.475 688.299 717.784H718.635Z" fill="black"/>
<path d="M824.2 690.89C832.043 690.89 838.349 693.314 843.117 698.162C847.961 702.932 850.384 709.627 850.384 718.246V755.759H834.235V720.439C834.235 715.437 832.966 711.628 830.429 709.012C827.891 706.318 824.43 704.972 820.047 704.972C815.664 704.972 812.165 706.318 809.551 709.012C807.013 711.628 805.744 715.437 805.744 720.439V755.759H789.596V720.439C789.596 715.437 788.327 711.628 785.789 709.012C783.252 706.318 779.791 704.972 775.408 704.972C770.948 704.972 767.41 706.318 764.796 709.012C762.258 711.628 760.989 715.437 760.989 720.439V755.759H744.841V691.813H760.989V699.547C763.066 696.853 765.719 694.737 768.948 693.198C772.255 691.659 775.869 690.89 779.791 690.89C784.789 690.89 789.25 691.967 793.171 694.122C797.093 696.199 800.131 699.2 802.284 703.125C804.36 699.431 807.359 696.469 811.281 694.237C815.28 692.006 819.586 690.89 824.2 690.89Z" fill="black"/>
<path d="M887.854 756.797C882.625 756.797 877.934 755.874 873.782 754.027C869.629 752.104 866.323 749.526 863.862 746.294C861.478 743.062 860.171 739.484 859.94 735.559H876.204C876.512 738.022 877.704 740.061 879.78 741.677C881.933 743.293 884.586 744.101 887.739 744.101C890.815 744.101 893.199 743.485 894.891 742.254C896.659 741.023 897.543 739.445 897.543 737.522C897.543 735.444 896.467 733.905 894.314 732.905C892.238 731.827 888.892 730.673 884.279 729.442C879.511 728.288 875.589 727.095 872.513 725.864C869.514 724.632 866.9 722.747 864.67 720.208C862.516 717.668 861.44 714.244 861.44 709.935C861.44 706.395 862.439 703.163 864.439 700.239C866.515 697.315 869.437 695.007 873.205 693.314C877.05 691.621 881.549 690.774 886.701 690.774C894.314 690.774 900.389 692.698 904.926 696.546C909.463 700.316 911.962 705.433 912.423 711.897H896.967C896.736 709.358 895.659 707.357 893.737 705.895C891.891 704.356 889.392 703.587 886.239 703.587C883.317 703.587 881.049 704.125 879.434 705.203C877.896 706.28 877.127 707.78 877.127 709.704C877.127 711.859 878.204 713.513 880.357 714.667C882.51 715.745 885.855 716.86 890.392 718.015C895.006 719.169 898.812 720.362 901.811 721.593C904.81 722.824 907.386 724.748 909.54 727.364C911.77 729.903 912.923 733.289 913 737.522C913 741.215 911.962 744.524 909.886 747.448C907.886 750.372 904.964 752.681 901.119 754.374C897.351 755.99 892.93 756.797 887.854 756.797Z" fill="black"/>
<defs>
<filter id="filter0_d_2_3" x="76" y="204" width="867.323" height="612.373" filterUnits="userSpaceOnUse" color-interpolation-filters="sRGB">
<feFlood flood-opacity="0" result="BackgroundImageFix"/>
<feColorMatrix in="SourceAlpha" type="matrix" values="0 0 0 0 0 0 0 0 0 0 0 0 0 0 0 0 0 0 127 0" result="hardAlpha"/>
<feOffset dx="10" dy="10"/>
<feGaussianBlur stdDeviation="10"/>
<feComposite in2="hardAlpha" operator="out"/>
<feColorMatrix type="matrix" values="0 0 0 0 0 0 0 0 0 0 0 0 0 0 0 0 0 0 0.25 0"/>
<feBlend mode="normal" in2="BackgroundImageFix" result="effect1_dropShadow_2_3"/>
<feBlend mode="normal" in="SourceGraphic" in2="effect1_dropShadow_2_3" result="shape"/>
</filter>
<linearGradient id="paint0_linear_2_3" x1="642.5" y1="215.874" x2="86" y2="777.874" gradientUnits="userSpaceOnUse">
<stop stop-color="#C40000"/>
<stop offset="1" stop-color="#550000"/>
</linearGradient>
<linearGradient id="paint1_linear_2_3" x1="314.5" y1="352.873" x2="23.5" y2="754.373" gradientUnits="userSpaceOnUse">
<stop stop-color="#5B0101"/>
<stop offset="1" stop-color="#370000"/>
</linearGradient>
<linearGradient id="paint2_linear_2_3" x1="129" y1="436.873" x2="168" y2="720.874" gradientUnits="userSpaceOnUse">
<stop stop-color="#840002"/>
<stop offset="1" stop-color="#840002" stop-opacity="0"/>
</linearGradient>
<linearGradient id="paint3_linear_2_3" x1="580.5" y1="350.873" x2="86" y2="786.873" gradientUnits="userSpaceOnUse">
<stop stop-color="#600300"/>
<stop offset="1" stop-color="#100501"/>
</linearGradient>
</defs>
</svg>
