<?xml version="1.0" encoding="utf-8"?>
<!-- Generator: Adobe Illustrator 21.0.0, SVG Export Plug-In . SVG Version: 6.00 Build 0)  -->
<svg version="1.1" id="Layer_1" xmlns="http://www.w3.org/2000/svg" xmlns:xlink="http://www.w3.org/1999/xlink" x="0px" y="0px"
	 viewBox="0 0 24 24" style="enable-background:new 0 0 24 24;" xml:space="preserve">
<style type="text/css">
	.st0{fill:#5830E0;}
</style>
<path class="st0" d="M18.9,6c-0.2-0.6-0.8-1-1.4-1h-11C5.8,5,5.3,5.4,5.1,6L3,12v8c0,0.5,0.5,1,1,1h1c0.6,0,1-0.5,1-1v-1h12v1
	c0,0.5,0.5,1,1,1h1c0.5,0,1-0.5,1-1v-8L18.9,6 M6.8,7h10.3l1.1,3H5.8L6.8,7 M19,17H5v-5h14V17 M7.5,13C8.3,13,9,13.7,9,14.5
	S8.3,16,7.5,16S6,15.3,6,14.5S6.7,13,7.5,13 M16.5,13c0.8,0,1.5,0.7,1.5,1.5S17.3,16,16.5,16c-0.8,0-1.5-0.7-1.5-1.5
	S15.7,13,16.5,13z"/>
</svg>
