<?xml version="1.0" encoding="utf-8"?>
<!-- Generator: Adobe Illustrator 21.0.0, SVG Export Plug-In . SVG Version: 6.00 Build 0)  -->
<svg version="1.1" id="Layer_1" xmlns="http://www.w3.org/2000/svg" xmlns:xlink="http://www.w3.org/1999/xlink" x="0px" y="0px"
	 viewBox="0 0 24 24" style="enable-background:new 0 0 24 24;" xml:space="preserve">
<style type="text/css">
	.st0{fill:#5830E0;}
</style>
<path class="st0" d="M17.5,7c3,0,5.5,2.5,5.5,5.5l0,0c0,3-2.5,5.5-5.5,5.5c-1.7,0-3.2-0.8-4.2-2h-2.5c-1,1.2-2.5,2-4.2,2
	c-3,0-5.5-2.5-5.5-5.5S3.5,7,6.5,7H17.5 M6.5,9C4.6,9,3,10.6,3,12.5S4.6,16,6.5,16c1.4,0,2.6-0.8,3.2-2h4.7c0.6,1.2,1.8,2,3.2,2
	c1.9,0,3.5-1.6,3.5-3.5S19.4,9,17.5,9H6.5 M5.8,10.3h1.5v1.5h1.5v1.5H7.3v1.5H5.8v-1.5H4.3v-1.5h1.5V10.3 M16.8,12.5
	c0.6,0,1,0.4,1,1s-0.4,1-1,1s-1-0.4-1-1S16.2,12.5,16.8,12.5 M18.8,10.5c0.6,0,1,0.4,1,1s-0.4,1-1,1s-1-0.4-1-1S18.2,10.5,18.8,10.5
	z"/>
</svg>
