<?xml version="1.0" encoding="utf-8"?>
<!-- Generator: Adobe Illustrator 21.0.0, SVG Export Plug-In . SVG Version: 6.00 Build 0)  -->
<svg version="1.1" id="Layer_1" xmlns="http://www.w3.org/2000/svg" xmlns:xlink="http://www.w3.org/1999/xlink" x="0px" y="0px"
	 viewBox="0 0 24 24" style="enable-background:new 0 0 24 24;" xml:space="preserve">
<style type="text/css">
	.st0{fill:#5830E0;}
</style>
<path class="st0" d="M21,9V7c0-1.7-1.4-3-3-3h-4c-0.8,0-1.5,0.3-2,0.8C11.5,4.3,10.8,4,10,4H6C4.3,4,3,5.3,3,7v2c-1.6,0-3,1.4-3,3v5
	c0,1.6,1.4,3,3,3v2h2v-2h14v2h2v-2c1.6,0,3-1.4,3-3v-5C24,10.4,22.6,9,21,9 M14,6h4c0.5,0,1,0.4,1,1v2.8c-0.6,0.6-1,1.3-1,2.2v2h-5
	V7C13,6.4,13.4,6,14,6 M5,7c0-0.6,0.4-1,1-1h4c0.6,0,1,0.4,1,1v7H6v-2c0-0.9-0.4-1.7-1-2.2V7 M22,17c0,0.5-0.5,1-1,1H3
	c-0.5,0-1-0.5-1-1v-5c0-0.6,0.5-1,1-1s1,0.4,1,1v4h16v-4c0-0.6,0.5-1,1-1s1,0.4,1,1V17z"/>
</svg>
