<?xml version="1.0" encoding="utf-8"?>
<!-- Generator: Adobe Illustrator 21.0.0, SVG Export Plug-In . SVG Version: 6.00 Build 0)  -->
<svg version="1.1" id="Layer_1" xmlns="http://www.w3.org/2000/svg" xmlns:xlink="http://www.w3.org/1999/xlink" x="0px" y="0px"
	 viewBox="0 0 24 24" style="enable-background:new 0 0 24 24;" xml:space="preserve">
<style type="text/css">
	.st0{fill:#5830E0;}
</style>
<path class="st0" d="M20,14H4V8h3v2h2V8h6v2h2V8h3 M20,19H4v-2h16 M9,4h6v2H9 M20,6h-3V4c0-1.1-0.9-2-2-2H9C7.9,2,7,2.9,7,4v2H4
	C2.9,6,2,6.9,2,8v11c0,1.1,0.9,2,2,2h16c1.1,0,2-0.9,2-2V8C22,6.9,21.1,6,20,6z"/>
</svg>
