<?xml version="1.0" encoding="UTF-8"?>
<!DOCTYPE svg PUBLIC "-//W3C//DTD SVG 1.1//EN" "http://www.w3.org/Graphics/SVG/1.1/DTD/svg11.dtd">
<!-- Creator: CorelDRAW 2021.5 (Evaluation Version) -->
<svg xmlns="http://www.w3.org/2000/svg" xml:space="preserve" width="15.1575in" height="9.84252in" version="1.1" style="shape-rendering:geometricPrecision; text-rendering:geometricPrecision; image-rendering:optimizeQuality; fill-rule:evenodd; clip-rule:evenodd"
viewBox="2000 0 16157.48 9842.52"
 xmlns:xlink="http://www.w3.org/1999/xlink"
 xmlns:xodm="http://www.corel.com/coreldraw/odm/2003">
 <defs>
  <style type="text/css">
   <![CDATA[
    .fil0 {fill:#332C2B}
    .fil1 {fill:#332C2B}
    .fil2 {fill:#332C2B;fill-rule:nonzero}
   ]]>
  </style>
 </defs>
 <g id="Layer_x0020_1">
  <metadata id="CorelCorpID_0Corel-Layer"/>
  <g id="_1899572113360">
   <g>
    <path class="fil0" d="M8911.59 6375.17c-23.41,28.93 -48.01,19.82 -97.24,35.14 -78.2,24.34 -154.78,24.95 -213.8,34.9 -140.23,23.63 -440.24,15.67 -594.04,15.67l-2703.98 0c-281.07,0 -242.29,33.49 -242.29,-116.48l0 -1709.69c0,-75.62 6.33,-1740.94 -1.91,-1819.26 -14.69,-4.63 -2096.75,-11.86 -2147.58,-0.33 -14,63.44 -4.7,285.51 -4.7,369.11l0 4086.7c0,91.37 -7.41,565.27 11.65,645.82 7.48,31.61 7.16,1.15 18.5,69.48l67.31 159.39c15.68,21.09 4.57,10.3 14.8,32.79 30.09,66.15 105.37,158.43 156.7,209.56 24.44,24.33 32.4,18.4 43.44,49.22l124.8 86.93c60.71,34.09 41.89,30.54 94.87,50.26 34.94,13 -10.89,2.46 53.96,17.91 26.9,6.4 17.14,11.53 51.07,18.73 40.72,8.64 62.46,18.76 118.07,28.25 104.24,17.8 80.37,13.2 198.11,13.19l4249.11 0c252.52,0 578.18,9.54 821.56,-28.9 25.49,-4.02 34.91,-10.3 63.39,-11.85 88.53,-4.82 54.58,6.11 122.4,-18.15 21.06,-7.54 42.85,-2.21 64.42,-7.27 30.5,-7.16 -12.62,-5.28 59.2,-16.15 17.19,-2.6 33.66,-11.98 52.03,-16.49 23.51,-5.78 38.02,-6.28 57.78,-12.36 21.7,-6.68 31.85,-8.62 55.76,-14.26 28.65,-6.76 23.4,-10.36 55.15,-15.63l370 -125.85c17.16,-4.91 14.02,-5.61 27.23,-11.3l104.42 -42.28c52.67,-15.43 17.65,-6.8 47.29,-22.25l75.1 -33.57c17.5,-8.79 31.28,-17 46.54,-23.91l165.26 -83.8c39.87,-28.49 100.77,-53.74 158.16,-91.18l216.68 -141.41c9.26,-5.51 17.25,-8.57 23.54,-14.2 54.07,-48.3 29.71,-21.15 58.78,-44.33 13.52,-10.78 26.68,-23.84 40.89,-35.09 18.98,-15.05 25.79,-10.62 43,-27.38 34.05,-33.17 63.28,-42.65 79.3,-61.89 35.34,-42.44 32.67,-19.27 76.51,-64.72l37.01 -34.19c9.38,-9.87 27.17,-19.5 32.79,-32.5 4.19,-31.44 1.34,-10.87 25.43,-33.96 13.7,-13.13 11.95,-17.21 26.4,-27.84 41.37,-30.43 122.35,-118.41 158.32,-151.89 12.19,-11.34 17.31,-17.09 26.95,-27.7l45.35 -47.28c0.76,-0.86 1.74,-2.14 2.49,-2.99l75.85 -81.83c9.84,-11.66 13.82,-18.98 23.66,-30.16l14.07 -14.02c13.62,-8.79 -1.34,-5.24 19.04,-7.19 11.51,-3.42 19.99,-15.65 28.56,-26.08l11.5 -15.5c0.69,-0.93 1.61,-2.26 2.31,-3.19 0.71,-0.93 1.69,-2.21 2.42,-3.12 0.72,-0.91 1.76,-2.14 2.5,-3.04l255.59 -343.85c14.08,-24.16 60.35,-78.09 68.78,-99.54l105.13 -173.77c0.62,-0.96 1.6,-2.23 2.22,-3.2 20.09,-31.37 33.96,-77.43 55.08,-109.43l71.98 -141.22c7.03,-16.5 5.8,-10.54 13.87,-23.8 27.81,-45.75 38.97,-96.53 66.11,-142.4l14.96 -21.15c4.62,-11.97 3.34,-27.15 6.07,-40.09 6.48,-30.82 23.78,-57.1 34.39,-86.44l71.31 -179.15c15.05,-24.81 19.14,-66.87 29.82,-96.53 8.79,-24.41 4.99,-5.3 11.92,-25.73l34.59 -130.44c11.37,-28.11 11.84,-36.27 9.88,-72.93 -27.57,-12.78 -34.93,-15.77 -59.18,-32.67l-32.93 -16.26c-12.08,-6.26 -4.01,-2.71 -12.93,-8.61l-308.55 -223.01c-5.44,-4.69 -6.84,-6.15 -10.91,-11.24 -16.87,-21.11 -39.37,-35.21 -60.52,-53.05 -13.2,-11.13 -15.11,-11.56 -29.31,-20.44 -28.15,-17.61 -75.51,-73.15 -105.89,-100.18 -4.74,-4.22 -6.44,-5.37 -11.57,-10.12 -9.24,-8.54 -13.99,-14.09 -24.17,-24.57l-62.77 -73.73c-25.29,-35.41 -59.23,-60.28 -87.82,-91.53l-117.34 -149.86c-16.86,-19.05 -25.5,-41.85 -41.52,-61.82 -43.89,-54.71 -139.56,-208.49 -178.78,-278.85 -11.83,-21.21 -18.26,-40.13 -30.04,-63.37l-34.02 -58.39c-24.22,-35.83 -32.61,-92.87 -54.4,-131.93 -9.53,-17.07 -20.8,-50.1 -25.52,-69.11 -9.36,-37.63 -30.47,-62.26 -39.74,-94.81 -4.32,-15.16 -2.88,-23.11 -7.79,-36.94l-45.34 -140.91c-10.96,-31.45 -0.24,-48.01 -15.99,-77.33 -9.79,-18.24 -12.78,-53.75 -20.48,-72.48 -12.09,-29.39 -10.49,-67.15 -21.14,-88.46l-28.24 -138.63c-0.79,-29.03 -3.7,-57.83 -7.73,-87.38 -7.26,-53.33 -10.35,-207.23 -14.14,-225.09 -8.01,-37.8 -6.66,-87.81 -6.66,-128.88 0,-66.38 2.55,-304.42 15.55,-352.81 12.95,-48.2 13.2,-115.51 22.57,-165.02 8.88,-46.87 19.63,-151.2 38.98,-196.02 7.88,-18.28 7.2,-13.07 9.15,-36.28 4.13,-49.41 10.48,-34.17 18.55,-73.97 7.47,-36.81 50.19,-173.64 66.26,-206.44l28.7 -63.01c8.1,-16.6 3.43,-21.4 9.75,-40.07l74.17 -153.48c10.52,-33.75 19.95,-73.82 44.75,-100.74l31.6 -54.49c11.91,-31.07 -0.16,-43.58 -10.57,-54.45l-38.85 -37.5c-11.3,-10.75 -14.43,-15.24 -26.15,-28.41 -17.27,-19.41 -39.03,-25.57 -57.43,-45.44l-259.28 -218.46c-11.7,-8.83 1.72,-0.53 -12.51,-8.87l-31.35 -18.19c-23.65,-16.49 -39.12,-24.45 -60.87,-42.19l-302.16 -196.55c-37.17,-25.52 -152.6,-84.5 -198.08,-105.89 -13.48,-6.34 -21.07,-11.97 -32.15,-16.76 -20.28,-8.76 -14.81,-3.08 -33.75,-14.73l-98.96 -51.85c-18.86,-6.53 -24.77,-8.76 -37.33,-13.25l-85.89 -37.96c-43.16,-19.82 -119.14,-55.91 -160.33,-66.6 -39.18,-10.18 -5.31,-3.48 -30.79,-16.59 -13.69,-7.04 -29.53,-3.58 -45.95,-9.27 -14.06,-4.87 -13.48,-8.75 -34.11,-14.31 -17.96,-4.84 -18.96,-3.38 -35.99,-12.33 -17.5,-9.2 -16.45,-8.07 -36.26,-11.85 -35.46,-6.78 -15.01,-6.37 -39.43,-14.61 -14.33,-4.84 -27.48,-4.06 -40.68,-8.75 -16.57,-5.89 -16.09,-10.78 -32.74,-14.16 -23.79,-4.84 -18.86,1.5 -40.59,-9.26 -32.07,-15.87 -42.53,-3.96 -72.32,-22.75 -11.8,-7.44 -137.89,-27 -161.21,-34.38 -17.26,-5.47 -15.57,-8.46 -36.11,-12.13 -15.53,-2.78 -25.87,-1.99 -42.66,-5 -22.53,-4.03 -18.52,-8.54 -42.97,-11.5 -42.52,-5.15 -87.95,-8.63 -126.66,-19.33 -18.92,-5.23 -71.43,-7.04 -93.24,-8.49 -41.07,-2.74 -49.77,-11.15 -85.57,-12.66 -33.84,-1.42 -67.07,-4.21 -96.89,-5.32 -41.69,-1.56 -49.18,-12.12 -80.37,-13.61 -154.1,-7.42 -2316.44,-12.59 -2373.11,-2.58 -36.59,6.46 -45.97,11.81 -88.9,14.62 -46.81,3.08 -43.15,15.47 -71.39,22.02l-117.61 40.09c-20.78,8.53 -13.24,9.99 -32.8,16.07 -49.6,15.43 -55.54,31.58 -96.16,54.87 -30.38,17.42 -60.69,48.08 -86,65.96 -49.26,34.79 -54.83,49.59 -92.23,87.43 -1.11,1.13 -4.35,4.41 -5.46,5.57l-164.55 250.93c-10.66,24.33 -18.88,42.24 -29.72,67.74 -21.93,51.6 -26.37,105.87 -41.19,161.24 -16.24,60.71 -13.18,118.2 -13.17,189.65l0 3264.95c0,167.27 -8.26,1590.42 4.18,1626.65 36.96,13.17 1055.44,4.21 1185.4,4.21 116.15,0 1094.94,7.09 1183.24,-1.5 14.61,-62.16 3.57,-367.88 3.57,-454.64l0 -2288.78c0,-107.16 -6.79,-827.09 1.24,-913.22 64.44,-8.26 643.25,-5.7 732.41,-1.39l106.71 15.98c39.7,6.06 66.19,0.18 101.41,16.78 35.88,16.91 43.77,-3.24 102.52,21.46 18.3,7.69 35.54,1.6 54.62,10.76l19.05 11.73c20.52,6.97 11.07,-4.14 72.64,19.56 13,5 34.04,4.54 52.1,8.7 29.68,6.83 58.39,22.57 87.75,32.42 47.2,15.83 117.1,58.91 168.87,79.77 48.76,19.65 89.88,54.2 134.02,81.48 6.13,3.79 11.77,6.49 17.59,9.79l75.42 50c14,8.84 25.28,18.01 35.94,28.48 29.63,29.15 72.17,51.4 148.33,128.76 4.24,4.29 1.49,1.79 8.26,8.24 0.82,0.78 1.97,1.9 2.8,2.67l137.51 145.55c0.75,0.83 1.84,2.03 2.59,2.85l196.4 266.61c9.86,18.6 13.2,21.35 23.73,41.94 33.74,66.04 71.82,135.43 100,206.56 14.93,37.7 28.28,47.65 34.2,93.9 3.73,29.15 22.76,33.02 38.58,83.19 12.49,39.61 13.83,66.98 21.3,101.85 5.08,23.74 13.08,21.39 17.28,47.48 2.92,18.05 0.38,41.46 4.1,58.36 4,18.19 12.65,18.76 16.6,46.89 8.91,63.31 20.09,88.99 22.25,164.21 0.52,18.09 -0.19,41.98 2.61,59.11 3.28,20.03 8.09,22.43 8.71,50.96 2.15,98.59 3.58,214.78 -10.46,310.07 -10.24,69.49 2.06,63.28 -21.92,158.66 -4.38,17.46 -3.74,39.13 -8.45,58.92l-28.29 96.57c-3.63,19.69 -0.4,36.13 -7.31,54.65l-34.33 90.17c-7.94,28.94 -10.39,15.47 -17.57,42.23l-75 176.71c-8.14,15.25 -9.12,24.53 -18.72,41.72l-118.85 208.96c-38.07,55.07 -73.3,109.79 -117.72,160.24l-193.51 203.74 -440.44 302.81c-29.64,20.65 -61.99,32.53 -93.25,47.49 -11.71,5.61 -9.02,2.78 -20.64,6.87 -26.09,9.18 -10.9,12.12 -39.03,19.28 -16.51,4.19 -10.8,0.33 -26.03,7.35l-112.87 38.54c-14.57,6.91 -13.16,15.32 -39.25,13.55z"/>
    <path class="fil0" d="M16274.78 2381.44c29.11,-0.78 42.42,-1.44 63.67,-14.4l94.74 -50.26c18.36,-12.48 39.22,-17.27 60.08,-32.4l6.63 -4.5c1.02,-0.67 2.43,-1.42 3.46,-2.07l152.16 -118.78c27.3,-24.48 60.35,-51.64 81.6,-81.93l49.03 -59.89c9.35,-12.34 18.02,-18.5 27.38,-32.19l42.17 -66.98c22.78,-31.56 34.69,-70.36 54.96,-103.31 24.09,-39.15 36.63,-81.04 47.55,-123.44 6.17,-23.91 7.95,-6.26 16.07,-37.55l38.75 -180.35c18.41,-132 6.84,-288.65 -26.35,-410.48l-30.29 -101.73c-6.61,-31.52 -7.56,-25.84 -16.95,-49.49l-20.76 -44.33c-12.96,-27.4 -25.3,-64.39 -43.54,-88.06 -38.6,-50.1 -61.82,-112.15 -105.74,-156.02 -36.98,-36.93 -55.58,-73.85 -95.7,-105.4 -14.89,-11.7 -22.46,-16.18 -36.06,-29.29 -13.94,-13.44 -16.61,-17.48 -33.83,-31.17 -61.15,-48.59 -77.43,-50.85 -115.93,-79.63l-40.08 -24.52c-56.28,-34.81 -175.85,-79.58 -235.12,-89.96 -58.28,-10.21 -9.94,-13.59 -110.6,-20.3 -29.65,-1.98 -26.69,-6.62 -53.12,-10.6 -94.7,-14.28 -2136.9,-5.39 -2414.54,-5.39 -49.92,0 -102.05,13.03 -139.48,15.41 -47.78,3.06 -102.07,1.83 -147.28,11.15l-196.8 35.5c-10.63,5.29 2.59,6.61 -22.46,13.37 -9.02,2.43 -23.41,2.7 -33.98,4.5 -48.15,8.18 -241.17,76.38 -296.98,97.81l-312.4 152.87c-17.29,11.02 -28.72,17.07 -49.88,26.65 -20.91,9.47 -28.21,21.83 -46.63,33.76 -9.07,5.88 -14.15,8.25 -23.74,14.5 -53,34.51 -154.85,100.18 -204.06,143.33l-203.83 182.22c-17.74,15.18 -21.89,23.31 -37.03,39.11 -8.75,9.14 -15.61,12.01 -23.25,19.98l-125.73 146.51c-21.42,22.7 -27.98,47.35 -51.5,68.11l-53 61.3c-12.04,18.63 -16.9,30.94 -29.99,46.94 -22.67,27.73 -35.9,67.53 -61.37,96.96 -22.81,26.37 -40.14,66.5 -58.54,99.73l-40.97 79.85c-13.12,36.67 -44.87,89.5 -63.29,126.96l-34.82 86.5c-6.01,12.84 -7.37,7.63 -13.93,23.5l-81.74 235.59 -70.26 320.19c-12.34,41.66 -14.18,92.58 -24.02,133.7 -8.64,36.11 -10.67,185.31 -10.67,222.09l5.26 292.31c0.77,32.37 18.31,221.94 27.93,247.94l9.74 39.11c4.19,49.95 11.58,50.82 18.89,90.47 4.04,21.94 0.36,28.89 8.68,47.03 8.04,17.53 10.6,8.75 13.53,38.86 3.35,34.44 44.78,171 61.22,209.24 5.61,13.04 2,2.89 9.5,17.33 14.97,28.8 22.41,71.74 33.31,103.68 12.59,36.89 24.34,46.24 34.04,74.93 21.74,64.24 51.84,126.28 85.33,183.5l56.22 102.6c0.86,1.36 3.5,5.09 4.37,6.44l76.22 125.34c5.08,6.39 6.16,6.5 12.33,14.95 5.56,7.61 7.64,10.81 11.17,17.14 12.2,21.8 5.1,14.1 20.35,33.02l78.72 101.51c0.97,1.27 3.72,4.99 4.7,6.24l56.06 62.99c30.73,26.35 56.38,62.5 79.94,95.51l66.97 68.17c4.26,4.05 6.26,6.43 10.8,10.88 63.9,62.68 136.54,118.07 205.3,175.23 5.38,4.47 8.91,7.45 15.25,11.98l73.78 56.29c50.72,42.52 115.15,72.32 169.11,112.87l6.48 4.39c44.98,30.16 112.58,53.4 153.43,85.4l259.45 114.11c24.22,7.77 12.66,11.29 34.41,17.93 19.97,6.11 23.04,3.87 42.67,12.21 18.72,7.94 25.85,6.21 43.16,11.28 26.67,7.81 10.8,10.91 34.22,18.05 13.42,4.09 29.37,2.52 43.56,6.18 15.66,4.05 19.87,10.22 39.81,13.96 16.72,3.13 30.18,2.74 45.43,9.23 23.38,9.94 62.37,12.82 85.48,21.96 31.72,12.54 59.7,4.8 91.07,16.56 24.33,9.12 251.36,33.74 275.92,34.19 118.61,2.16 1014.85,-7.55 1056.43,2.57 30.37,7.39 5.03,10.63 38.08,14.13 17.1,1.82 35.53,-0.8 52,4.58 30.29,9.91 82.05,32.12 109.42,52.46 0.57,0.43 9.45,7.22 9.48,7.25 0.9,0.74 2.13,1.8 3.02,2.55 0.85,0.74 2.04,1.84 2.87,2.59l70.89 58.27c18.21,14.73 33.67,42.25 49.19,60.17 9.93,11.47 13.93,18.72 22.28,32.84l34.96 68.59c5.48,15.63 5.33,28.89 11.3,44.12 8.58,21.87 10.28,9.3 12.48,43.5 3.56,55.63 8.38,180.82 -7.9,225.98 -5.86,16.26 -6.7,25.02 -10.68,39.5 -6.61,24.07 -31.69,62.96 -44.4,85.65l-17.3 26.76c-24.09,34.39 -44.26,47.54 -58.03,66.72l-111.98 84.52c-27.63,18.29 5.37,6.27 -30.64,16.89l-75.39 21.96c-25.64,4.61 -16.15,7.36 -43,11.23 -47.55,6.86 -91.33,5.7 -139.43,5.7l-1759.74 0c-491.1,0 -370.61,-35.6 -441.12,93.05l-40.12 68.02c-4.48,8.78 -8.79,14.49 -12.12,20.57l-22.85 49.4c-10.7,30.67 -32.79,61.26 -52.77,88.4 -9.31,12.64 -18.08,25.39 -28.15,42.75l-25.21 46.43c-23.92,51.2 -63.97,93.33 -94,140.19 -4.75,7.41 0.42,0.11 -6.41,10.07l-260.19 338.94c-18.75,27.19 -16.69,16.83 -34.74,36.07 -22.89,24.41 -36.69,53.85 -62.39,79.25l-169.08 184.98c-49.4,61.39 -121.54,111.15 -176.94,171.04 -46.29,50.02 -101.46,86.25 -153.7,128.72 -43.45,35.32 -71.22,63.73 -118.67,93.17 -32.64,20.26 -66.89,55.17 -98.64,79.96 -3.41,2.66 -5.76,4.37 -9.24,7.21 -47.83,39.24 -109.24,66.34 -158.42,102.24 -1.29,0.94 -4.96,3.74 -6.25,4.7l-12.4 9.36c-24.57,20.76 -63.12,34.26 -85,55.49 -26.24,25.44 -58.76,33.5 -87.67,53.41 -41.69,28.71 -91.42,49.49 -135.46,76.04l-45.24 25c-9.72,6.41 -15.52,8.61 -24.16,13.86 -38.19,23.2 -72.28,42.7 -116.41,56.5 -28.36,8.87 -44.16,23.16 -73,35.59l-141.69 62.89c-24.87,9.89 -11.07,-3.17 -18.83,16.3l22.76 7.91c48.43,6.86 4259.15,0.37 4694.61,0.37 78.37,0 209.84,-12.04 283.73,-25.14 20.61,-3.65 39.74,-12.3 65.79,-15.22 34.47,-3.86 36.2,-1.49 63.59,-12 60.9,-23.37 54.56,-23.92 118.26,-31.4 49.25,-5.78 126.33,-46.94 173,-59.07 29.59,-7.7 27.1,-10.84 56.17,-20.07 25.18,-7.99 28.85,-12.65 58.67,-22.64l104.12 -47.6c13.53,-5.48 14.44,-4.31 30.36,-9.15 18.97,-5.79 8.88,-3.54 24.15,-12.93l317.27 -187.59c21.77,-11.15 35.12,-28.96 54.41,-42.53 4.84,-3.41 2.88,-1.78 9.5,-6.69 5.08,-3.77 3.97,-3.43 12.26,-9.42l34.46 -25.07c38.59,-30.51 81.39,-62.24 114.56,-97.2l239.33 -239.63c68.23,-73.07 173.46,-210.54 226.33,-290.91l64.11 -94.17c12.44,-17.17 14.63,-33.96 29.01,-53.3 16.98,-22.82 25.22,-48.15 40.22,-73.95l56.4 -113.25c6.98,-18.74 9.34,-14.37 13.85,-24.01 7.15,-15.28 2.67,-17.33 11.15,-33.27l70.56 -157.29c9.44,-30.89 19.5,-24.98 21.85,-58.25 2.38,-33.57 14.78,-61.63 23.52,-95.06 5.4,-20.62 6.24,-15.87 10.06,-28.68l23.85 -90.91c4.6,-35.15 14.53,-37.65 18.69,-62.46 9.62,-57.56 15.13,-75.76 19.68,-136.99 1.97,-26.5 9.68,-33.3 14.47,-60.43 7.64,-43.28 6.58,-96.38 11.73,-142.82 2.84,-25.64 9.26,-34.48 9.56,-66.63l1.53 -204.3c0,-127.86 -8.74,-105.35 -11.69,-154.38 -6.36,-105.5 -1.47,-98.98 -22.67,-197.09 -3.83,-17.74 -2.17,-31.46 -5.55,-49.3 -6.43,-33.93 -13.83,-55.93 -15.88,-95.72 -2.12,-41.21 -15.33,-52.76 -18.65,-92.93 -2.23,-27.05 -11.93,-35.92 -18.03,-62.6 -2.21,-9.69 -1.47,-15.81 -3.21,-24.96 -3.42,-18.06 -28.72,-64.67 -37.85,-127.63 -3.13,-21.52 1.62,-5.01 -6.47,-18.24 -21.67,-35.38 -23.89,-65.23 -37.16,-100.45l-156.54 -329.28c-23.41,-42.63 -141.12,-237.1 -169.71,-271.7l-144.06 -182.77c-46.52,-62.83 -112.6,-130.65 -171.29,-182.61l-67.48 -67.85c-4.07,-3.42 -10.09,-7.22 -15.62,-11.58 -66.5,-52.48 -162.57,-131.74 -230.19,-177.59 -23.24,-15.75 -42.7,-27.05 -66.31,-42.35l-81.38 -53.86c-51.12,-32.17 -105.85,-52.62 -160.22,-83.96 -28.13,-16.21 -116.28,-71.09 -138.82,-74.95l-122.75 -41.78c-30.74,-10.25 -2.45,-8.69 -37.15,-16.54 -17.62,-4 -25.15,-4.01 -43.58,-11.14 -17.96,-6.95 -29.67,-5.27 -44.22,-10.79 -17.22,-6.53 -7.76,-11.88 -36.56,-16.5 -67.78,-10.86 -45.63,-17.38 -85.41,-22.22 -44.03,-5.36 -39.48,-19 -85.85,-21.03 -17.68,-0.78 -34.33,-0.08 -50.39,-5.11 -41.74,-13.09 -94.24,-15.16 -136.23,-24.85 -38.41,-8.85 -103.32,-5.52 -141.01,-19.17 -21.9,-7.93 -120.2,-9.87 -150.1,-9.85 -320.09,0.29 -646.68,8.29 -965.73,-0.76 -54.82,-1.55 -50.03,-3.33 -89.92,-19.13 -40.88,-16.19 -69.8,-35.13 -105.35,-56.83l-63.51 -45.52c-33.75,-27.59 -65.9,-70.85 -86.92,-109.62l-16.02 -32.74c-30.27,-45.68 -48.56,-122.7 -48.56,-201 0,-117.14 11.58,-77.44 17.15,-131.93 9.28,-90.54 101.34,-238.45 181.2,-283.72 44.83,-25.43 75.06,-54.43 131.55,-60.23 36.2,-3.71 39.63,-16.65 86.8,-20.34 131.32,-10.26 293.54,-1.92 428.17,-1.92 431,0 861.98,0 1292.98,0 102.74,0 552.57,10.86 632.76,-10.3 29.7,-7.83 76.64,-2.68 98.54,-9.92 45.56,-15.07 -3.72,-13.63 94.92,-16.23 3.74,-6.09 7.94,-13.53 11.47,-20.03z"/>
    <path class="fil0" d="M2891.83 1452.49c0.07,0.39 7.39,26.45 7.88,27.69 12.44,31.91 7.19,62.48 15.59,88.56 9.11,28.3 12.15,15.96 15.52,54.77 2.55,29.32 29.07,103.34 40.23,130.53l22.14 48.35c3.71,8.07 7.2,11.52 12.02,20.37l66.42 119.6c46.81,74.19 49.13,66.15 93.91,129.62 14.02,19.86 36.37,33.45 53.11,50.27 28.73,28.87 22.74,33.96 66.05,69.81 6.54,5.4 11.96,8.93 18.4,14.16 61.14,49.61 94.38,59.7 119.91,80.8 33.76,27.91 74.17,38.91 112.06,61.43l121.36 46.82c20.47,6.05 32.88,5.26 52.02,12.5 32.44,12.27 72.53,14.85 107.94,26.04 54.03,17.07 198.07,7.77 263.11,5.49 45.09,-1.58 70.62,-17.05 123.52,-18.48 47.28,-1.27 24.03,-4.23 52.58,-15.57 20.59,-8.18 26.31,-4.29 48.57,-15.75l143.2 -61.94c14.26,-7.47 31.44,-17.56 42.98,-22.62 49.56,-21.78 121.19,-75.14 159.7,-111.29 33.83,-31.76 60.87,-49.37 90.67,-83.13 37.14,-42.07 73.61,-81.91 103.98,-130.74 20.39,-32.75 36.77,-49.13 53.65,-82.11l86.45 -186.78c6.7,-22.49 9.93,-36.42 16.33,-55.21 6.45,-18.94 4.87,-34.43 13.91,-51.98 15.13,-29.41 9.68,1.66 12.13,-57.66 1.72,-41.63 7.96,-26.8 13.96,-51.68 11.73,-48.59 10.35,-248.37 -4.83,-303.44 -2.93,-10.6 -3.37,-17.62 -5.11,-28.65 -6.51,-41.18 -19.68,-74.96 -23.95,-118.07 -3.77,-38.09 -6.44,-22.38 -16.17,-49.15 -3.91,-10.77 -3.8,-18.73 -7.98,-30.41l-72.22 -163.37c-25.54,-55.6 -71.46,-114.83 -111.34,-160.81 -22.08,-25.46 -38.33,-47.83 -61.74,-74.25 -11.07,-12.5 -25.35,-20.92 -37.34,-33.59 -63.95,-67.57 -187.34,-157.63 -275.07,-196.59l-200.7 -70.45c-44.26,-5.17 -55.77,-18.9 -113.28,-21.13 -40.44,-1.56 -85.04,-9.71 -123.18,-12.02 -58.47,-3.53 -131.18,6.58 -191.92,13.91l-167.59 38.86c-34.19,4.96 -6.76,-0.43 -24.29,11.42l-68.79 29.22c-31.95,11.66 -58.5,28.69 -88.9,46.19l-79.92 55.38c-22.56,17.78 -63.02,38.04 -80.93,55.22 -77.52,74.36 -66.38,60.07 -133.04,138.86l-88.8 118.32c-19.22,25.56 18.35,-22.5 -5.01,6 -17.91,21.85 -55.83,98.88 -66.14,124.38 -4.41,10.93 -4.86,17.89 -9.5,29 -4.82,11.59 -7.29,12.55 -10.89,21.83l-60.12 214.44c-9.02,70.92 -8.78,41.2 -17.68,84.5 -8.07,39.21 -7.94,205.55 -2.86,232.52z"/>
    <path class="fil0" d="M3218.43 8437.2c-11.04,-30.82 -19,-24.89 -43.44,-49.22 -51.33,-51.13 -126.61,-143.41 -156.7,-209.56 -10.24,-22.49 0.88,-11.69 -14.8,-32.79l-67.31 -159.39c-11.34,-68.33 -11.02,-37.87 -18.5,-69.48 -19.06,-80.55 -11.65,-554.45 -11.65,-645.82l0 -4086.7c0,-83.61 -9.3,-305.67 4.7,-369.11 50.83,-11.52 2132.89,-4.29 2147.58,0.33 8.24,78.32 1.91,1743.64 1.91,1819.26l0 1709.69c0,149.98 -38.78,116.48 242.29,116.48l2703.98 0c153.8,0 453.81,7.96 594.04,-15.67 59.02,-9.95 135.6,-10.56 213.8,-34.9 49.23,-15.32 73.84,-6.22 97.24,-35.14 -43.7,-0.49 -29.06,10.91 -68.08,16.11 -33.42,4.46 -33.85,6.31 -62.94,15.21 -22.7,6.94 -45.28,6.03 -71.37,6.86 -55.93,1.77 -39.51,-2.19 -53.12,9.97l-5.78 7.24c-37.14,0.91 -69.72,2.75 -107.3,4.16 -59.94,2.24 -64.39,-6.07 -99.82,10.91 -21.49,10.3 -84.95,5.77 -109.42,5.77l-3264.2 0 0 -3438.13c0,-20.74 8.98,-200.27 -9.24,-214.72 -13.71,-10.86 -1721.37,-4.59 -2043.31,-4.59 -38.23,0 -106.95,-7.27 -121.99,11.48 -15.78,22.97 -5.86,585.74 -5.86,665.58l0 3336.65c0,101.35 -5.62,947.6 0.5,1003.12 2.12,19.26 11.74,44.5 14.89,67.1 3.44,24.72 -2.17,54.36 6.53,76.93 12.24,31.76 10.09,-5.96 17.25,66.56 4.06,41.24 0.73,8.43 11.49,29.68 8.43,16.67 5.69,15.64 6.8,36.11 30.46,9.55 8.55,-4.62 19.22,19.17l12.17 26.21c30.5,56.37 33.59,77.17 84.13,144.91 26.66,35.72 114.45,148.33 156.29,159.74z"/>
    <path class="fil0" d="M11062.61 7621.56l92.16 -75.59c33.71,-36.62 39.1,-34.52 53.78,-49.53 33.82,-34.57 257.73,-257.01 271.63,-299.74 -20.38,1.95 -5.42,-1.6 -19.04,7.19l-14.07 14.02c-9.84,11.17 -13.82,18.5 -23.66,30.16l-75.85 81.83c-0.76,0.85 -1.74,2.13 -2.49,2.99l-45.35 47.28c-9.63,10.62 -14.76,16.36 -26.95,27.7 -35.97,33.48 -116.95,121.46 -158.32,151.89 -14.45,10.63 -12.7,14.71 -26.4,27.84 -24.09,23.09 -21.24,2.52 -25.43,33.96z"/>
   </g>
   <!-- <path class="fil1" d="M18003.83 222.55l0.04 0c69.08,0 125.57,58.07 125.57,129.07l0 8174.57c0,71 -56.5,129.07 -125.57,129.07l-0.04 0c-69.08,0 -125.57,-58.07 -125.57,-129.07l0 -8174.57c0,-71 56.5,-129.07 125.57,-129.07z"/> -->
   <!-- <path class="fil2" d="M19581.08 2465.61l0 -2203.87 -240.47 0 0 2203.87 240.47 0zm2321.16 0l0 -2203.87 -223.76 0 0 1860.58 -1265.79 -1860.58 -267.19 0 0 2203.87 227.1 0 0 -1867.46 1265.78 1867.46 263.85 0zm2287.76 0l0 -2203.87 -223.76 0 0 1860.58 -1265.79 -1860.58 -267.19 0 0 2203.87 227.1 0 0 -1867.46 1265.78 1867.46 263.85 0zm1532.97 -2056.27c424.15,0 828.28,3.44 828.28,950.91 0,947.45 -397.45,950.88 -828.28,950.88 -437.51,0 -828.27,-3.43 -828.27,-950.88 0,-947.47 390.76,-950.91 828.27,-950.91zm-1075.41 950.91c0,988.65 480.92,1143.13 1075.41,1143.13 594.47,0 1075.41,-154.48 1075.41,-1143.13 0,-988.65 -480.94,-1143.13 -1075.41,-1143.13 -594.49,0 -1075.41,154.48 -1075.41,1143.13zm3473.39 1105.36l858.31 -2203.87 -247.13 0 -617.86 1582.54 -126.92 415.37 -20.04 0 -126.92 -415.37 -617.86 -1582.54 -247.13 0 858.31 2203.87 287.24 0zm2805.4 0l-858.31 -2203.87 -287.22 0 -858.33 2203.87 247.13 0 267.19 -690 971.88 0 270.53 690 247.13 0zm-584.46 -865.07l-834.94 0 280.54 -717.46 126.92 -415.39 20.03 0 126.92 415.39 280.54 717.46zm1439.45 865.07l0 -2008.2 768.16 0 33.4 -195.68 -1766.76 0 -33.4 195.68 758.13 0 0 2008.2 240.47 0zm1359.3 0l0 -2203.87 -240.47 0 0 2203.87 240.47 0zm1516.28 0l858.31 -2203.87 -247.13 0 -617.87 1582.54 -126.92 415.37 -20.03 0 -126.92 -415.37 -617.87 -1582.54 -247.13 0 858.31 2203.87 287.24 0zm2855.51 -312.39c-126.92,44.63 -434.17,161.35 -704.7,161.35 -614.52,0 -834.96,-133.89 -848.31,-889.09l1766.76 0 0 -89.25c0,-902.85 -360.7,-1119.1 -998.6,-1119.1 -594.49,0 -1015.31,185.37 -1015.31,1174.02 0,947.45 380.74,1119.1 1045.37,1119.1 310.59,0 681.3,-85.83 865,-175.09l-110.21 -181.94zm-1549.66 -926.86c33.4,-779.25 354.02,-817.02 764.81,-817.02 474.26,0 718.05,109.87 744.76,817.02l-1509.58 0zm-15820.61 4317.92c674.64,0 1045.35,-133.89 1045.35,-1115.67 0,-971.49 -424.16,-1088.2 -1078.75,-1088.2l-768.16 0 0 2203.87 801.56 0zm-561.09 -199.09l0 -1809.1 521 0c484.26,0 838.28,17.15 838.28,889.09 0,823.88 -213.73,920.01 -831.59,920.01l-527.69 0zm3630.33 199.09l33.4 -199.09 -1362.63 0 0 -844.48 1078.75 0 0 -195.68 -1078.75 0 0 -768.94 1329.22 0 33.4 -195.68 -1603.09 0 0 2203.87 1569.69 0zm1910.37 -2114.62c-183.7,-89.25 -544.4,-133.87 -854.99,-133.87 -427.48,0 -784.85,199.1 -784.85,601.32 0,505.75 277.19,543.52 1028.66,688.27 357.34,68.66 467.57,92.69 467.57,364.46 0,429.67 -230.46,433.1 -604.52,433.1 -394.08,0 -718.04,-102.97 -848.31,-157.89 -40.06,65.21 -66.78,120.15 -103.52,188.79 197.04,96.12 614.52,168.22 921.77,168.22 511,0 861.68,-113.28 861.68,-645.95 -10.03,-536.65 -574.46,-550.39 -1072.09,-660.81 -387.4,-85.82 -420.8,-85.82 -420.8,-374.76 0,-312.95 207.07,-409.07 604.5,-409.07 270.53,0 567.77,75.53 694.67,120.15l110.23 -181.94zm734.76 2114.62l0 -2203.87 -240.47 0 0 2203.87 240.47 0zm2170.87 -291.78c-126.92,65.22 -384.08,130.43 -587.81,130.43 -634.55,0 -848.31,-133.87 -848.31,-957.75 0,-871.94 354.02,-933.73 838.3,-933.73 270.51,0 524.35,85.82 651.25,130.45l110.22 -181.94c-183.69,-89.25 -457.56,-144.17 -768.15,-144.17 -654.61,0 -1078.75,161.33 -1078.75,1132.82 0,981.78 370.71,1150 1045.35,1150 320.62,0 687.99,-82.38 865,-188.81l0 -1084.77 -878.36 0 -33.38 195.68 684.65 0 0 751.79zm2394.63 291.78l0 -2203.87 -223.76 0 0 1860.58 -1265.79 -1860.58 -267.19 0 0 2203.87 227.1 0 0 -1867.46 1265.78 1867.46 263.85 0zm-9491.67 964.05c-183.7,-89.25 -544.4,-133.87 -854.99,-133.87 -427.48,0 -784.85,199.1 -784.85,601.32 0,505.75 277.19,543.52 1028.66,688.27 357.34,68.66 467.57,92.69 467.57,364.46 0,429.67 -230.46,433.1 -604.52,433.1 -394.08,0 -718.05,-102.97 -848.31,-157.89 -40.06,65.21 -66.78,120.15 -103.52,188.79 197.04,96.12 614.52,168.22 921.77,168.22 511,0 861.68,-113.28 861.68,-645.96 -10.03,-536.65 -574.46,-550.39 -1072.09,-660.81 -387.4,-85.82 -420.8,-85.82 -420.8,-374.76 0,-312.95 207.07,-409.07 604.5,-409.07 270.53,0 567.77,75.53 694.67,120.15l110.23 -181.94zm1389.34 2114.62l0 -940.6 885.05 -1263.28 -263.84 0c-146.95,216.27 -300.59,435.98 -444.2,655.67 -100.18,147.63 -210.41,332.98 -277.19,449.7 -76.83,-127 -180.35,-305.5 -267.19,-435.96 -146.95,-219.71 -293.9,-453.13 -440.85,-669.41l-287.22 0c283.87,415.37 574.44,851.34 854.97,1263.28l0 940.6 240.47 0zm2705.26 -2114.62c-183.69,-89.25 -544.4,-133.87 -854.99,-133.87 -427.48,0 -784.85,199.1 -784.85,601.32 0,505.75 277.19,543.52 1028.66,688.27 357.34,68.66 467.57,92.69 467.57,364.46 0,429.67 -230.46,433.1 -604.52,433.1 -394.08,0 -718.04,-102.97 -848.3,-157.89 -40.07,65.21 -66.78,120.15 -103.53,188.79 197.04,96.12 614.52,168.22 921.77,168.22 511,0 861.68,-113.28 861.68,-645.96 -10.03,-536.65 -574.46,-550.39 -1072.09,-660.81 -387.4,-85.82 -420.8,-85.82 -420.8,-374.76 0,-312.95 207.07,-409.07 604.49,-409.07 270.53,0 567.77,75.53 694.67,120.15l110.23 -181.94zm1312.53 2114.62l0 -2008.19 768.16 0 33.4 -195.68 -1766.76 0 -33.4 195.68 758.13 0 0 2008.19 240.47 0zm2625.07 0l33.4 -199.09 -1362.63 0 0 -844.48 1078.75 0 0 -195.68 -1078.75 0 0 -768.94 1329.22 0 33.4 -195.68 -1603.09 0 0 2203.87 1569.69 0zm2645.12 0l0 -2203.87 -360.7 0 -661.27 1585.98 -140.28 415.37 -140.27 -415.37 -661.27 -1585.98 -360.7 0 0 2203.87 227.1 0 0 -1929.25 10.02 0 794.87 1929.25 260.5 0 794.87 -1929.25 10.01 0 0 1929.25 227.12 0zm2120.78 -2114.62c-183.7,-89.25 -544.4,-133.87 -854.99,-133.87 -427.48,0 -784.85,199.1 -784.85,601.32 0,505.75 277.19,543.52 1028.66,688.27 357.34,68.66 467.57,92.69 467.57,364.46 0,429.67 -230.46,433.1 -604.52,433.1 -394.08,0 -718.05,-102.97 -848.31,-157.89 -40.06,65.21 -66.78,120.15 -103.52,188.79 197.04,96.12 614.52,168.22 921.77,168.22 511,0 861.67,-113.28 861.67,-645.96 -10.02,-536.65 -574.45,-550.39 -1072.08,-660.81 -387.4,-85.82 -420.8,-85.82 -420.8,-374.76 0,-312.95 207.07,-409.07 604.5,-409.07 270.53,0 567.77,75.53 694.67,120.15l110.23 -181.94z"/> -->
  </g>
 </g>
</svg>
