<?xml version="1.0" encoding="utf-8"?>
<!-- Generator: Adobe Illustrator 21.0.0, SVG Export Plug-In . SVG Version: 6.00 Build 0)  -->
<svg version="1.1" id="Layer_1" xmlns="http://www.w3.org/2000/svg" xmlns:xlink="http://www.w3.org/1999/xlink" x="0px" y="0px"
	 viewBox="0 0 52.2 44.3" style="enable-background:new 0 0 52.2 44.3;" xml:space="preserve">
<style type="text/css">
	.st0{fill:#5830E0;}
	.st1{fill:#081828;}
</style>
<g>
	<path class="st0" d="M19.2,41.6c-18.3,2.8-11.3-11-11.3-11c1.5-2.8,3.2-5.4,5.2-7.8c-0.7-1.7-1-3.5-1-5.3c0-8,6.4-14.5,14.4-14.6
		c3.2,0,6.4,1.1,9,3c3.2-1.5,6.6-2.8,10.1-3.7c-20.7,9.1-29.1,19.4-32.6,24C1.8,43.2,18.3,41.7,19.2,41.6z"/>
	<path class="st1" d="M37.1,33.1c0,0-7.6,0.9-14-1.5l0,0l-0.8-0.2c1.3-3.6,5.9-14.8,16.6-21.6c4.3,6.8,2.2,15.7-4.6,20
		c-0.2,0.1-0.4,0.2-0.6,0.3C34.6,31.4,35.7,32.4,37.1,33.1z"/>
	<path class="st0" d="M19,39c0,0-9.5-6.5,13.6-27.2C32.6,11.9,5.7,33.6,19,39z"/>
</g>
</svg>
