<?xml version="1.0" encoding="utf-8"?>
<!-- Generator: Adobe Illustrator 21.0.0, SVG Export Plug-In . SVG Version: 6.00 Build 0)  -->
<svg version="1.1" id="Layer_1" xmlns="http://www.w3.org/2000/svg" xmlns:xlink="http://www.w3.org/1999/xlink" x="0px" y="0px"
	 viewBox="0 0 24 24" style="enable-background:new 0 0 24 24;" xml:space="preserve">
<style type="text/css">
	.st0{fill:#5830E0;}
</style>
<path class="st0" d="M16,21H8c-0.6,0-1-0.4-1-1v-7.9l-1.3,1.1c-0.4,0.4-1,0.4-1.4,0l-2.8-2.8c-0.4-0.4-0.4-1,0-1.4L7.3,3H9
	c0,1.1,1.3,2,3,2s3-0.9,3-2h1.7l5.9,5.9c0.4,0.4,0.4,1,0,1.4l-2.8,2.8c-0.4,0.4-1,0.4-1.4,0L17,12.1V20C17,20.6,16.6,21,16,21
	 M20.4,9.6l-4.3-4.3c-0.3,0.3-0.7,0.7-1.1,0.9C14.2,6.7,13.1,7,12,7c-1.7,0-3.2-0.7-4.1-1.7L3.6,9.6L5,11l3-2h1v10h6V9h1l3,2
	L20.4,9.6z"/>
</svg>
