<?xml version="1.0" encoding="utf-8"?>
<!-- Generator: Adobe Illustrator 21.0.0, SVG Export Plug-In . SVG Version: 6.00 Build 0)  -->
<svg version="1.1" id="Layer_1" xmlns="http://www.w3.org/2000/svg" xmlns:xlink="http://www.w3.org/1999/xlink" x="0px" y="0px"
	 viewBox="0 0 24 24" style="enable-background:new 0 0 24 24;" xml:space="preserve">
<style type="text/css">
	.st0{fill:#5830E0;}
</style>
<path class="st0" d="M12,20c-3.9,0-7-3.1-7-7s3.1-7,7-7s7,3.1,7,7S15.9,20,12,20 M19,7.4L20.5,6C20,5.5,19.5,5,19,4.6L17.6,6
	c-1.6-1.3-3.5-2-5.6-2c-5,0-9,4-9,9s4,9,9,9c5,0,9-4,9-9C21,10.9,20.3,8.9,19,7.4 M11,14h2V8h-2 M15,1H9v2h6V1z"/>
</svg>
